# xmcd
#
# Track frame offsets:
#	150
#	15450
#	41252
#	56408
#	70904
#	86011
#	100856
#	114523
#	128745
#	145399
#	164299
#	181731
#	195780
#	225504
#
# Disc length: 3277 seconds
#
# Revision: 1
# Processed by: cddbd v1.5.1PL0 Copyright (c) Steve Scherf et al.
# Submitted via: EasyCDDAExtractor 5.0.6
#
DISCID=a70ccb0e
DTITLE=Jfive - Sweet Little Nothing
DYEAR=2005
DGENRE=Hip-Hop
TTITLE0=Comin' After You
TTITLE1=Find A Way (album version)
TTITLE2=Modern Times
TTITLE3=Turn It Up
TTITLE4=Kick Me
TTITLE5=Movin' On Up
TTITLE6=I Love Paris
TTITLE7=Out Of sight
TTITLE8=All Or Nothing
TTITLE9=C'est La Vie
TTITLE10=Wake Me Up
TTITLE11=Riddin' Rock
TTITLE12=Sweet Little Nothing
TTITLE13=Bonus Music Video (Modern Times)
EXTD=
EXTT0=
EXTT1=
EXTT2=
EXTT3=
EXTT4=
EXTT5=
EXTT6=
EXTT7=
EXTT8=
EXTT9=
EXTT10=
EXTT11=
EXTT12=
EXTT13=
PLAYORDER=
